HIERARCHY
ROOT Bip001_Pelvis
{
  OFFSET 7.937 94.8971 -8.5489
  CHANNELS 6 Xposition Yposition Zposition Zrotation Xrotation Yrotation
  JOINT Bip001_Spine
  {
    OFFSET 1.44608e-005 10.4157 -0.0118244
    CHANNELS 3 Zrotation Xrotation Yrotation
    JOINT Bip001_L_Thigh
    {
      OFFSET 11.2582 -10.4157 0.0118432
      CHANNELS 3 Zrotation Xrotation Yrotation
      JOINT Bip001_L_Calf
      {
        OFFSET -0.720717 -44.8687 0.366937
        CHANNELS 3 Zrotation Xrotation Yrotation
        JOINT Bip001_L_Foot
        {
          OFFSET -0.664439 -41.3745 -3.62995
          CHANNELS 3 Zrotation Xrotation Yrotation
          JOINT Bip001_L_Toe0
          {
            OFFSET 0.0541047 -10.4146 13.4033
            CHANNELS 3 Zrotation Xrotation Yrotation
            End Site
            {
              OFFSET -1.04503e-005 0 7.70137
            }
          }
        }
      }
    }
    JOINT Bip001_R_Thigh
    {
      OFFSET -11.2582 -10.4156 0.0118122
      CHANNELS 3 Zrotation Xrotation Yrotation
      JOINT Bip001_R_Calf
      {
        OFFSET 0.72059 -44.8687 0.36676
        CHANNELS 3 Zrotation Xrotation Yrotation
        JOINT Bip001_R_Foot
        {
          OFFSET 0.664321 -41.3745 -3.62979
          CHANNELS 3 Zrotation Xrotation Yrotation
          JOINT Bip001_R_Toe0
          {
            OFFSET -0.05417 -10.4146 13.4033
            CHANNELS 3 Zrotation Xrotation Yrotation
            End Site
            {
              OFFSET -1.04873e-005 0 7.70137
            }
          }
        }
      }
    }
    JOINT Bip001_Spine1
    {
      OFFSET 1.90638e-005 14.8539 1.10727
      CHANNELS 3 Zrotation Xrotation Yrotation
      JOINT Bip001_Spine2
      {
        OFFSET 2.28934e-005 14.7848 -1.7233
        CHANNELS 3 Zrotation Xrotation Yrotation
        JOINT Bip001_Neck
        {
          OFFSET 2.24514e-005 15.6905 -0.498826
          CHANNELS 3 Zrotation Xrotation Yrotation
          JOINT Bip001_L_Clavicle
          {
            OFFSET 6.17691 -0.000591152 0.00852867
            CHANNELS 3 Zrotation Xrotation Yrotation
            JOINT Bip001_L_UpperArm
            {
              OFFSET 11.773 -0.0611878 0.00197697
              CHANNELS 3 Zrotation Xrotation Yrotation
              JOINT Bip001_L_Forearm
              {
                OFFSET 26.4515 0.0817568 -2.19579
                CHANNELS 3 Zrotation Xrotation Yrotation
                JOINT Bip001_L_Hand
                {
                  OFFSET 32.8677 0.156744 1.67112
                  CHANNELS 3 Zrotation Xrotation Yrotation
                  JOINT Bip001_L_Finger0
                  {
                    OFFSET 6.16268 -2.25226 6.01674
                    CHANNELS 3 Zrotation Xrotation Yrotation
                    End Site
                    {
                      OFFSET 4.30499 -1.46662 0.618148
                    }
                  }
                  JOINT Bip001_L_Finger1
                  {
                    OFFSET 11.2957 -0.718374 -0.201963
                    CHANNELS 3 Zrotation Xrotation Yrotation
                    End Site
                    {
                      OFFSET 6.31952 -0.405163 -0.0802303
                    }
                  }
                }
              }
            }
          }
          JOINT Bip001_R_Clavicle
          {
            OFFSET -6.17691 -0.000574027 0.00851165
            CHANNELS 3 Zrotation Xrotation Yrotation
            JOINT Bip001_R_UpperArm
            {
              OFFSET -11.773 -0.0611516 0.00194365
              CHANNELS 3 Zrotation Xrotation Yrotation
              JOINT Bip001_R_Forearm
              {
                OFFSET -26.4514 0.0822334 -2.19736
                CHANNELS 3 Zrotation Xrotation Yrotation
                JOINT Bip001_R_Hand
                {
                  OFFSET -32.8677 0.156817 1.67144
                  CHANNELS 3 Zrotation Xrotation Yrotation
                  JOINT Bip001_R_Finger0
                  {
                    OFFSET -6.1627 -2.25224 6.0167
                    CHANNELS 3 Zrotation Xrotation Yrotation
                    End Site
                    {
                      OFFSET -4.30499 -1.46662 0.618134
                    }
                  }
                  JOINT Bip001_R_Finger1
                  {
                    OFFSET -11.2958 -0.718344 -0.201994
                    CHANNELS 3 Zrotation Xrotation Yrotation
                    End Site
                    {
                      OFFSET -6.31952 -0.405146 -0.0802475
                    }
                  }
                }
              }
            }
          }
          JOINT Bip001_Head
          {
            OFFSET 1.11782e-005 11.4912 2.09908
            CHANNELS 3 Zrotation Xrotation Yrotation
            End Site
            {
              OFFSET 2.95144e-005 21.2823 -2.83069e-005
            }
          }
        }
      }
    }
  }
}
MOTION
Frames:	9
Frame Time:	0.04
8.42531 94.2352 -8.82104 -0.446768 -5.30305 -8.06348 0.253316 1.3992 -1.05564 5.74416 -5.64242 12.5409 -1.24788 21.9132 0.768822 -3.12129 -11.1646 3.19835 0.898216 -9.55078 1.32837 -7.22288 -8.96906 3.87833 -2.34192 22.9548 7.81881 0.757728 -10.5974 -7.21901 0.163885 -11.598 -0.59078 0.523158 2.79357 -2.11863 0.523157 2.79357 -2.11863 0.880508 -2.08449 4.12732 -27.954 10.7602 -19.1635 -52.4594 41.8993 11.5039 16.8085 0.756341 -34.0975 -0.754938 -0.39893 -4.92059 -1.10348e-032 -1.59028e-015 -3.97569e-016 -3.18055e-015 -1.98785e-015 1.39149e-015 29.7635 4.7677 5.16466 56.4535 17.6588 -22.0358 35.1036 -43.6195 67.0664 2.08327 -4.60195 -15.6264 1.59028e-015 6.36111e-015 -1.59028e-015 3.18055e-015 3.18056e-015 -0 -4.3243 -3.77709 5.12865 
8.79811 93.7782 -8.63048 -0.102163 -5.08627 -9.1716 0.273512 1.31859 -1.2277 5.65414 -6.35654 13.4763 -1.71247 23.9336 2.25361 -3.06982 -12.4858 2.18217 0.900359 -9.53232 1.34385 -7.48171 -10.5409 4.44118 -3.00761 25.3797 8.45956 0.873785 -11.9387 -6.59191 0.379677 -11.5973 -0.844396 0.620996 2.63052 -2.46087 0.619192 2.63053 -2.4609 1.12985 -1.76913 4.73336 -27.303 10.7205 -20.3167 -54.8078 42.0276 14.1319 17.0551 1.13819 -34.8097 -1.40845 -0.29446 -4.93561 3.18055e-015 2.98177e-016 1.44119e-015 3.18055e-015 1.09332e-015 1.51573e-015 28.8313 3.44781 2.7308 53.2412 11.8774 -20.8676 34.778 -39.7942 69.5409 2.63723 -4.67093 -16.0894 8.82781e-032 -3.18055e-015 1.59028e-015 -0 0 1.59028e-015 -4.93627 -4.46193 5.8956 
8.94317 92.937 -8.50025 -0.362941 -4.7408 -10.0746 0.492824 1.04898 -1.50898 6.55396 -7.96472 13.5031 -3.06563 28.1334 1.71632 -2.15593 -15.0206 3.8565 0.654834 -9.48608 1.83072 -7.17221 -12.4742 5.82654 -3.06009 28.9909 8.96119 0.485128 -13.8612 -6.88889 0.563341 -11.595 -1.10872 1.04875 2.08411 -3.02288 1.04874 2.08406 -3.02287 0.591502 -0.487727 5.48822 -26.039 9.67303 -21.5281 -58.8825 42.8627 18.3553 17.772 1.57538 -34.8143 -1.89335 -0.206286 -4.7844 6.36111e-015 0 2.08724e-015 6.36111e-015 7.95139e-016 1.68967e-015 28.9313 1.04973 0.264862 48.6989 4.61211 -21.4743 32.4105 -33.3171 72.8984 0.0374007 -3.6741 -17.1404 6.36111e-015 6.36111e-015 -1.59028e-015 3.18055e-015 6.36111e-015 -0 -4.94537 -5.35805 6.48294 
9.06271 91.9008 -8.06614 -1.05412 -5.01859 -10.7486 0.76125 1.09953 -1.84323 7.76829 -9.34257 12.6833 -5.17965 32.9604 2.42947 -0.652111 -18.0362 5.5377 -0.115307 -9.52381 2.21555 -6.94759 -13.8941 6.34972 -2.83513 32.802 9.01519 0.156396 -16.049 -6.24819 0.660002 -11.6044 -1.23366 1.45583 2.17568 -3.69437 1.45584 2.17568 -3.69439 1.24142 -0.527755 6.12999 -24.9943 9.60435 -22.2463 -62.8599 43.3023 21.7149 19.0082 2.67345 -34.2946 -2.28314 -0.152417 -4.45252 3.18055e-015 2.38542e-015 -7.95139e-016 6.06912e-032 1.59028e-015 -2.18663e-015 29.9754 0.362528 -1.51607 38.6143 -11.0376 -22.8825 23.1172 -18.9287 74.3181 -1.55676 -2.40132 -16.7464 0 0 -1.11319e-014 -3.18055e-015 3.18056e-015 -7.95139e-015 -5.96905 -5.58029 7.47922 
9.23351 90.5183 -7.50462 -1.59909 -5.56376 -11.3786 1.00435 1.21132 -2.182 8.48756 -10.7782 11.659 -7.03048 38.2981 3.22344 0.747208 -21.4102 7.25233 -0.848923 -9.57441 2.87695 -7.17459 -15.5855 6.51932 -2.23155 37.6956 9.44682 -0.692916 -18.8513 -5.90621 0.87188 -11.6726 -1.32443 1.82923 2.388 -4.37032 1.82923 2.388 -4.37032 1.02472 -0.586898 6.94473 -23.7407 9.60728 -22.76 -65.4944 43.405 24.7248 17.7925 1.33061 -34.8081 -2.14993 -0.20607 -2.4225 5.79325e-032 2.38542e-015 -1.39149e-015 -1.59028e-015 7.95139e-016 -9.93923e-016 30.2013 -0.228823 -2.80999 27.6736 -29.2326 -25.5044 13.7125 -4.47732 79.8309 -1.31045 -2.11082 -15.34 3.18055e-015 -3.18055e-015 -0 3.18055e-015 -3.18056e-015 -4.77083e-015 -6.36519 -5.99714 8.27216 
9.5026 88.9187 -6.96435 -1.90285 -6.25697 -11.614 1.1279 1.32059 -2.34944 9.02749 -12.14 12.15 -8.00807 43.7006 2.16434 2.4868 -24.6376 8.97333 -1.4398 -9.63812 3.38201 -7.79849 -17.2455 6.02044 -1.6469 42.9287 10.2431 -1.82837 -21.8421 -6.0063 1.20819 -11.7852 -1.35974 2.01251 2.60035 -4.69881 2.01206 2.60036 -4.69871 1.10931 -0.618703 7.28961 -23.3197 9.71941 -23.3326 -67.3257 43.8387 27.3906 18.7913 4.30274 -34.1569 -1.82926 -0.00174271 -2.01415 3.18055e-015 0 -0 4.77083e-015 -1.59028e-015 -0 29.5556 -0.857223 -4.56253 17.2299 -43.2365 -26.8651 7.09074 5.0593 87.7728 -6.03582 0.887249 -13.4777 4.77083e-015 3.18055e-015 1.59028e-015 6.36111e-015 0 3.18055e-015 -6.97843 -6.24317 8.73658 
9.59409 87.2679 -6.39668 -2.3412 -6.94851 -11.0712 1.05933 1.46115 -2.35738 10.1787 -13.4448 11.6574 -10.2168 48.694 3.52926 3.78687 -27.6579 9.25142 -1.85437 -9.7341 3.53467 -7.85068 -18.4036 5.89607 -0.750162 47.8488 10.4191 -3.51067 -24.7546 -7.32582 1.93654 -11.9617 -1.36731 1.93345 2.88318 -4.70755 1.93345 2.88319 -4.70755 2.11218 -1.30867 6.91836 -23.3151 10.0952 -23.0657 -68.2566 44.3429 28.7547 19.6837 5.90976 -33.0512 -3.53916 -0.336342 -2.59308 -0 0 3.97569e-016 1.59028e-015 0 7.95139e-016 28.0292 -0.297025 -5.66328 9.6082 -53.0451 -25.0172 3.58862 7.89287 94.8468 -9.58745 4.28218 -12.5373 -1.59028e-015 -6.36111e-015 -3.97569e-016 -1.59028e-015 -6.36111e-015 1.98785e-015 -7.57878 -6.26363 8.73541 
9.64259 85.5374 -6.00064 -2.768 -7.4561 -9.61168 0.976038 1.57075 -2.28879 11.1296 -15.3452 11.5923 -10.8722 53.9338 3.9907 4.75126 -30.5021 8.68286 -2.52075 -9.90223 3.61479 -7.79396 -19.4005 6.35591 1.23715 52.4855 8.60378 -4.96434 -27.5927 -8.80414 2.65757 -12.0964 -1.5073 1.78059 3.10647 -4.56593 1.7806 3.10643 -4.56594 2.70124 -2.14036 6.63498 -23.0121 10.6081 -22.7784 -67.6314 44.4016 28.479 19.6592 5.82329 -32.0633 -5.03366 -0.431453 -2.16582 3.18055e-015 -1.59028e-015 1.98785e-016 3.18055e-015 -1.59028e-015 1.98785e-016 25.4653 0.662663 -6.2016 4.86824 -63.1755 -21.0274 -1.86005 8.39418 99.2938 -10.4992 4.46728 -11.3395 -2.38542e-015 0 -3.57812e-015 -7.95139e-016 -3.18056e-015 -3.97569e-015 -8.00091 -6.29714 8.6611 
9.6859 83.6408 -5.71205 -2.92447 -7.62546 -7.22604 0.797811 1.58263 -2.09646 11.4271 -18.0422 11.1891 -9.92031 59.3656 0.810525 6.91658 -32.9723 10.6795 -3.09591 -10.0217 3.79772 -7.6528 -20.4618 5.84134 2.11175 57.2079 7.50441 -6.19535 -30.6456 -10.5379 3.55009 -12.1996 -1.85563 1.47925 3.13866 -4.18498 1.47925 3.13866 -4.18497 3.4795 -2.49966 5.95629 -23.5117 10.8511 -22.7605 -64.6528 42.1137 26.8781 19.679 5.01244 -32.2721 -7.02444 -0.428691 -1.29743 -4.77083e-015 7.95139e-016 -0 -4.77083e-015 7.95139e-016 9.93923e-017 21.6586 1.43406 -6.1837 3.237 -72.0944 -15.7205 -6.93806 8.6584 101.73 -12.7684 4.06626 -9.64486 3.97569e-016 3.18055e-015 3.77691e-015 1.19271e-015 6.36111e-015 2.98177e-015 -8.65729 -6.82855 8.27441 
